HIERARCHY
ROOT Hips
{
	OFFSET 0.000000 0.000000 0.000000
	CHANNELS 6 Xposition Yposition Zposition Zrotation Yrotation Xrotation 
	JOINT LHipJoint
	{
		OFFSET 0.000000 0.000000 0.000000
		CHANNELS 3 Zrotation Yrotation Xrotation
		JOINT LeftUpLeg
		{
			OFFSET 1.363060 -1.794630 0.839290
			CHANNELS 3 Zrotation Yrotation Xrotation
			JOINT LeftLeg
			{
				OFFSET 2.448110 -6.726130 0.000000
				CHANNELS 3 Zrotation Yrotation Xrotation
				JOINT LeftFoot
				{
					OFFSET 2.562200 -7.039590 0.000000
					CHANNELS 3 Zrotation Yrotation Xrotation
					JOINT LeftToeBase
					{
						OFFSET 0.157640 -0.433110 2.322550
						CHANNELS 3 Zrotation Yrotation Xrotation
						End Site
						{
							OFFSET 0.000000 0.000000 0.000000
						}
					}
				}
			}
		}
	}
	JOINT RHipJoint
	{
		OFFSET 0.000000 0.000000 0.000000
		CHANNELS 3 Zrotation Yrotation Xrotation
		JOINT RightUpLeg
		{
			OFFSET -1.305520 -1.794630 0.839290
			CHANNELS 3 Zrotation Yrotation Xrotation
			JOINT RightLeg
			{
				OFFSET -2.542530 -6.985550 0.000000
				CHANNELS 3 Zrotation Yrotation Xrotation
				JOINT RightFoot
				{
					OFFSET -2.568260 -7.056230 0.000000
					CHANNELS 3 Zrotation Yrotation Xrotation
					JOINT RightToeBase
					{
						OFFSET -0.164730 -0.452590 2.363150
						CHANNELS 3 Zrotation Yrotation Xrotation
						End Site
						{
							OFFSET 0.000000 0.000000 0.000000
						}
					}
				}
			}
		}
	}
	JOINT LowerBack
	{
		OFFSET 0.000000 0.000000 0.000000
		CHANNELS 3 Zrotation Yrotation Xrotation
		JOINT Spine
		{
			OFFSET 0.028270 2.035590 -0.193380
			CHANNELS 3 Zrotation Yrotation Xrotation
			JOINT Spine1
			{
				OFFSET 0.056720 2.048850 -0.042750
				CHANNELS 3 Zrotation Yrotation Xrotation
				JOINT Neck
				{
					OFFSET 0.000000 0.000000 0.000000
					CHANNELS 3 Zrotation Yrotation Xrotation
					JOINT Neck1
					{
						OFFSET -0.054170 1.746240 0.172020
						CHANNELS 3 Zrotation Yrotation Xrotation
						JOINT Head
						{
							OFFSET 0.104070 1.761360 -0.123970
							CHANNELS 3 Zrotation Yrotation Xrotation
							End Site
							{
								OFFSET 0.000000 0.000000 0.000000
							}
						}
					}
				}
				JOINT LeftShoulder
				{
					OFFSET 0.000000 0.000000 0.000000
					CHANNELS 3 Zrotation Yrotation Xrotation
					JOINT LeftArm
					{
						OFFSET 3.362410 1.200890 -0.311210
						CHANNELS 3 Zrotation Yrotation Xrotation
						JOINT LeftForeArm
						{
							OFFSET 4.983000 -0.000000 -0.000000
							CHANNELS 3 Zrotation Yrotation Xrotation
							JOINT LeftHand
							{
								OFFSET 3.483560 -0.000000 -0.000000
								CHANNELS 3 Zrotation Yrotation Xrotation
								JOINT LeftFingerBase
								{
									OFFSET 0.000000 0.000000 0.000000
									CHANNELS 3 Zrotation Yrotation Xrotation
									JOINT LeftHandIndex1
									{
										OFFSET 0.715260 -0.000000 -0.000000
										CHANNELS 3 Zrotation Yrotation Xrotation
										End Site
										{
											OFFSET 0.000000 0.000000 0.000000
										}
									}
								}
								JOINT LThumb
								{
									OFFSET 0.000000 0.000000 0.000000
									CHANNELS 3 Zrotation Yrotation Xrotation
									End Site
									{
										OFFSET 0.000000 0.000000 0.000000
									}
								}
							}
						}
					}
				}
				JOINT RightShoulder
				{
					OFFSET 0.000000 0.000000 0.000000
					CHANNELS 3 Zrotation Yrotation Xrotation
					JOINT RightArm
					{
						OFFSET -3.136600 1.374050 -0.404650
						CHANNELS 3 Zrotation Yrotation Xrotation
						JOINT RightForeArm
						{
							OFFSET -5.241900 -0.000000 -0.000000
							CHANNELS 3 Zrotation Yrotation Xrotation
							JOINT RightHand
							{
								OFFSET -3.444170 -0.000000 -0.000000
								CHANNELS 3 Zrotation Yrotation Xrotation
								JOINT RightFingerBase
								{
									OFFSET 0.000000 0.000000 0.000000
									CHANNELS 3 Zrotation Yrotation Xrotation
									JOINT RightHandIndex1
									{
										OFFSET -0.622530 -0.000000 -0.000000
										CHANNELS 3 Zrotation Yrotation Xrotation
										End Site
										{
											OFFSET 0.000000 0.000000 0.000000
										}
									}
								}
								JOINT RThumb
								{
									OFFSET 0.000000 0.000000 0.000000
									CHANNELS 3 Zrotation Yrotation Xrotation
									End Site
									{
										OFFSET 0.000000 0.000000 0.000000
									}
								}
							}
						}
					}
				}
			}
		}
	}
}
MOTION
Frames: 6
Frame Time: 0.008333
17.648701 17.784020 2.962477 -173.471126 52.038938 176.175295 7.310907 0.895102 -0.231068 -22.128095 -18.802510 6.060470 0.193865 8.916579 26.806484 -2.719326 11.962608 -4.177327 2.540100 -9.910500 -28.687500 -8.143426 -0.564492 -2.586255 26.773308 4.041024 -2.053147 -3.072878 -12.457158 34.611693 3.615068 -19.445806 -0.985099 -5.270000 13.681500 -41.976400 -4.910457 2.931464 13.231946 0.436376 4.046467 2.009557 -6.480605 2.643891 1.002926 9.742794 14.598777 6.237674 6.712935 18.083213 -2.235036 -3.404100 7.759200 -3.042100 17.672468 4.626821 -1.990129 -65.171829 46.734157 84.197447 114.827186 -66.643991 -87.383933 -0.845904 -2.966270 -34.272251 50.098840 7.037059 12.236300 -7.125000 0.000000 0.000000 23.648000 44.083800 -0.568200 -18.540043 -7.363709 2.041220 82.295160 -43.527289 79.524259 -94.440074 65.903593 -70.362723 0.990690 1.457897 -32.890531 -52.211690 25.424800 -28.575000 7.125000 0.000000 0.000000 -14.394400 5.336200 -16.168500 
17.686481 17.435763 2.976215 -162.805854 54.763564 -176.417003 7.222935 1.338067 -0.335408 -14.952642 -15.216856 5.172438 1.049239 9.492596 30.185753 -2.332353 10.949964 -9.518247 2.607300 -10.030400 -29.075100 -8.579917 -0.578151 -2.425383 34.527964 5.892529 0.552560 -2.721315 -12.579144 34.421090 2.958379 -16.183178 -7.708493 -5.236000 13.644800 -41.832700 1.136769 2.688430 14.450320 1.103595 4.364106 2.083132 -7.239530 2.722520 0.371549 11.406518 14.156848 8.484288 4.803945 18.038859 -3.552830 -4.616300 7.436900 -3.771800 17.935487 4.406109 -1.845787 -65.540583 47.417197 83.981411 115.076769 -66.643140 -87.546424 -0.824175 -2.968985 -35.199789 49.927329 6.662781 11.677300 -7.125000 0.000000 0.000000 23.326100 43.466100 -0.937600 -18.387454 -7.374187 2.082091 81.541516 -43.533476 80.719487 -94.186589 65.786092 -70.154547 0.983348 1.489787 -33.770360 -52.748096 24.653122 -28.293300 7.125000 0.000000 0.000000 -14.923000 4.612700 -16.629500 
17.691747 17.203706 2.998196 -164.055116 57.823870 -177.079239 7.280852 1.134268 -0.422454 -16.027331 -13.780472 3.555820 1.806489 10.807113 34.049992 -1.803675 10.186113 -13.199238 2.379000 -9.614400 -27.736900 -8.630323 -0.411728 -2.282145 33.877916 8.449061 1.393993 -2.566782 -12.352196 33.971792 2.219631 -13.563211 -12.698502 -4.454900 12.742300 -38.411500 -0.593681 3.019090 14.579474 1.006903 4.542712 1.974701 -6.627906 2.773888 0.153818 9.998235 13.878884 7.061074 6.375879 17.207368 -2.332749 -3.634900 7.284900 -3.271500 17.835971 4.538711 -1.866805 -66.332379 47.198758 83.402842 113.710072 -66.905273 -86.751052 -0.850577 -3.026984 -35.385628 50.859868 6.158258 11.562800 -7.125000 0.000000 0.000000 24.123200 43.040900 -1.244700 -18.371025 -7.355759 1.956643 82.042046 -42.905825 80.880662 -91.384321 65.374953 -68.230631 1.052451 1.589928 -34.458022 -54.012436 24.954528 -29.666600 7.125000 0.000000 0.000000 -15.646200 5.579800 -17.739100 
17.724718 17.026028 3.010903 -167.775655 60.294843 -177.954714 7.358308 0.712692 -0.562984 -17.644767 -12.832937 -0.774973 2.482688 12.311622 37.576807 -1.734613 10.448397 -14.439904 2.527000 -9.886900 -28.611300 -8.649001 -0.197698 -2.038236 31.803308 10.972879 -0.533816 -2.491984 -12.376398 33.704599 2.781337 -16.104450 -13.783551 -5.434100 13.856500 -42.665800 -3.589739 3.415784 12.049028 0.751010 4.703587 1.776111 -5.935042 2.807930 0.562585 9.892346 13.503893 6.922176 6.718550 16.610336 -2.196661 -3.550800 6.997200 -3.300700 17.691440 4.596338 -1.857168 -66.547662 46.049838 83.205685 110.844874 -67.435527 -85.042042 -0.850749 -3.160233 -34.766078 51.563553 6.396811 12.464100 -7.125000 0.000000 0.000000 25.084100 43.859500 -0.756600 -18.348293 -7.462658 1.952221 83.954703 -41.995984 80.660546 -85.656341 64.273210 -64.107304 1.171930 1.788363 -34.986541 -55.095993 25.519054 -31.139300 7.125000 0.000000 0.000000 -16.289100 6.692800 -18.811700 
17.711095 16.949210 3.017772 -160.313457 61.861576 -170.105582 7.445369 0.724605 -0.800266 -13.301126 -11.102837 -3.942069 3.317116 13.038806 40.389830 -1.490093 9.708698 -14.810089 2.562100 -9.949900 -28.814700 -8.945489 -0.013930 -1.682247 35.849896 13.861038 -2.065378 -2.420553 -12.901373 34.234486 2.770867 -16.356795 -14.822630 -4.997600 13.381000 -40.812200 -0.002166 3.000150 11.083089 0.980006 4.479188 1.632252 -6.944626 2.656480 0.757996 10.125529 13.219924 6.632687 6.606003 16.247928 -1.648559 -3.587700 6.894700 -3.075100 17.722556 4.689404 -1.821226 -67.310207 45.832995 82.190964 109.406875 -67.710492 -84.280503 -0.650017 -3.374656 -33.903781 50.650468 9.963908 16.750900 -7.125000 0.000000 0.000000 25.899600 49.218400 2.868900 -18.242998 -7.481759 1.916949 84.851767 -41.117398 80.116479 -83.113253 63.570197 -62.068023 1.236526 1.833854 -36.128644 -55.087581 27.006307 -32.673100 7.125000 0.000000 0.000000 -15.916700 8.636400 -18.812500 
17.696212 16.860600 3.045706 -153.414204 62.972987 -163.720020 7.607285 0.801456 -1.015109 -10.246711 -10.166867 -4.933939 4.025690 13.460672 42.613410 -1.354257 9.568685 -15.890933 2.421400 -9.693600 -27.990100 -9.262030 0.207342 -1.392170 39.996391 17.503283 -1.904143 -2.398349 -13.292880 34.742808 3.060928 -17.645098 -15.103352 -4.739300 13.084000 -39.683800 2.772807 2.657752 11.412356 1.201043 4.310837 1.649960 -7.610999 2.562113 0.793140 10.273989 13.087042 6.380805 6.470423 16.096913 -1.545238 -3.620700 6.838000 -2.994900 17.721941 4.759551 -1.752172 -68.112369 45.431348 81.257045 108.382725 -67.886383 -83.704440 -0.702932 -3.423285 -33.460088 51.922252 9.968101 17.658400 -7.125000 0.000000 0.000000 27.483800 49.722400 3.431600 -18.148451 -7.540741 1.965681 85.782486 -40.768666 78.812363 -83.211473 63.592773 -62.142531 1.255804 1.792412 -34.524215 -54.409688 27.573293 -32.542300 7.125000 0.000000 0.000000 -15.365200 8.935700 -18.180400 
